<svg width="11" height="10" viewBox="0 0 11 10" fill="none" xmlns="http://www.w3.org/2000/svg">
<path d="M1.05601 8.78257C0.802165 9.03641 0.802165 9.44797 1.05601 9.70181C1.30985 9.95565 1.7214 9.95565 1.97524 9.70181L1.05601 8.78257ZM10.6509 0.756906C10.6509 0.397921 10.3599 0.106906 10.0009 0.106906H4.15091C3.79192 0.106906 3.50091 0.397921 3.50091 0.756906C3.50091 1.11589 3.79192 1.40691 4.15091 1.40691L9.35091 1.40691V6.60691C9.35091 6.96589 9.64192 7.25691 10.0009 7.25691C10.3599 7.25691 10.6509 6.96589 10.6509 6.60691V0.756906ZM1.97524 9.70181L10.4605 1.21653L9.54129 0.297287L1.05601 8.78257L1.97524 9.70181Z" fill="white"/>
</svg>
