<svg width="32" height="33" viewBox="0 0 32 33" fill="none" xmlns="http://www.w3.org/2000/svg">
<path d="M7.52075 13.4166C7.17696 13.4166 6.84704 13.4691 6.51867 13.5169C6.62504 13.1592 6.7345 12.7954 6.91025 12.4685C7.086 11.9937 7.36042 11.5821 7.63329 11.1674C7.86146 10.7187 8.26383 10.415 8.55983 10.0311C8.86971 9.65806 9.29213 9.40985 9.62667 9.09997C9.95504 8.77622 10.3852 8.61435 10.7274 8.38618C11.0851 8.18114 11.3965 7.95452 11.7295 7.8466L12.5605 7.50435L13.2912 7.20064L12.5435 4.21289L11.6231 4.43489C11.3287 4.50889 10.9695 4.59522 10.5609 4.69852C10.1431 4.7756 9.69758 4.98681 9.20117 5.17952C8.71092 5.39843 8.14358 5.54643 7.61633 5.89793C7.086 6.23402 6.47396 6.5146 5.93438 6.96477C5.41175 7.42881 4.78121 7.83118 4.31563 8.42164C3.80688 8.97356 3.30429 9.55323 2.91425 10.2131C2.46254 10.8421 2.15575 11.5327 1.832 12.2157C1.53909 12.8986 1.30321 13.597 1.1105 14.2754C0.745127 15.6351 0.58171 16.927 0.518502 18.0324C0.466085 19.1393 0.496919 20.0597 0.561669 20.7257C0.584794 21.0402 0.62796 21.3454 0.658794 21.5566L0.697335 21.8156L0.737419 21.8064C1.01162 23.0873 1.64284 24.2643 2.55807 25.2014C3.4733 26.1385 4.63512 26.7974 5.90915 27.1018C7.18318 27.4061 8.51735 27.3436 9.75733 26.9214C10.9973 26.4992 12.0924 25.7346 12.916 24.716C13.7395 23.6974 14.2579 22.4664 14.4111 21.1655C14.5643 19.8646 14.3461 18.5469 13.7817 17.3649C13.2173 16.1828 12.3297 15.1847 11.2218 14.486C10.1138 13.7873 8.83064 13.4166 7.52075 13.4166ZM24.4791 13.4166C24.1353 13.4166 23.8054 13.4691 23.477 13.5169C23.5834 13.1592 23.6928 12.7954 23.8686 12.4685C24.0443 11.9937 24.3187 11.5821 24.5916 11.1674C24.8198 10.7187 25.2222 10.415 25.5182 10.0311C25.828 9.65806 26.2505 9.40985 26.585 9.09997C26.9134 8.77622 27.3435 8.61435 27.6857 8.38618C28.0434 8.18114 28.3548 7.95452 28.6878 7.8466L29.5188 7.50435L30.2495 7.20064L29.5018 4.21289L28.5815 4.43489C28.287 4.50889 27.9278 4.59522 27.5192 4.69852C27.1015 4.7756 26.6559 4.98681 26.1595 5.17952C25.6708 5.39997 25.1019 5.54643 24.5747 5.89947C24.0443 6.23556 23.4323 6.51614 22.8927 6.96631C22.3701 7.43035 21.7395 7.83273 21.274 8.42164C20.7652 8.97356 20.2626 9.55323 19.8726 10.2131C19.4209 10.8421 19.1141 11.5327 18.7903 12.2157C18.4974 12.8986 18.2615 13.597 18.0688 14.2754C17.7035 15.6351 17.54 16.927 17.4768 18.0324C17.4244 19.1393 17.4552 20.0597 17.52 20.7257C17.5431 21.0402 17.5863 21.3454 17.6171 21.5566L17.6557 21.8156L17.6957 21.8064C17.9699 23.0873 18.6012 24.2643 19.5164 25.2014C20.4316 26.1385 21.5935 26.7974 22.8675 27.1018C24.1415 27.4061 25.4757 27.3436 26.7157 26.9214C27.9556 26.4992 29.0507 25.7346 29.8743 24.716C30.6979 23.6974 31.2162 22.4664 31.3694 21.1655C31.5226 19.8646 31.3044 18.5469 30.74 17.3649C30.1756 16.1828 29.2881 15.1847 28.1801 14.486C27.0721 13.7873 25.789 13.4166 24.4791 13.4166Z" fill="#D65A31"/>
</svg>
