<svg width="114" height="18" viewBox="0 0 114 18" fill="none" xmlns="http://www.w3.org/2000/svg">
<path d="M5.472 17V3.08H0.576V0.199999H13.536V3.08H8.64V17H5.472ZM18.9634 17.336C17.7794 17.336 16.7314 17.088 15.8194 16.592C14.9234 16.08 14.2194 15.368 13.7074 14.456C13.2114 13.528 12.9634 12.44 12.9634 11.192V10.904C12.9634 9.656 13.2114 8.576 13.7074 7.664C14.2034 6.736 14.8994 6.024 15.7954 5.528C16.6914 5.016 17.7314 4.76 18.9154 4.76C20.0834 4.76 21.0994 5.024 21.9634 5.552C22.8274 6.064 23.4994 6.784 23.9794 7.712C24.4594 8.624 24.6994 9.688 24.6994 10.904V11.936H16.0354C16.0674 12.752 16.3714 13.416 16.9474 13.928C17.5234 14.44 18.2274 14.696 19.0594 14.696C19.9074 14.696 20.5314 14.512 20.9314 14.144C21.3314 13.776 21.6354 13.368 21.8434 12.92L24.3154 14.216C24.0914 14.632 23.7634 15.088 23.3314 15.584C22.9154 16.064 22.3554 16.48 21.6514 16.832C20.9474 17.168 20.0514 17.336 18.9634 17.336ZM16.0594 9.68H21.6274C21.5634 8.992 21.2834 8.44 20.7874 8.024C20.3074 7.608 19.6754 7.4 18.8914 7.4C18.0754 7.4 17.4274 7.608 16.9474 8.024C16.4674 8.44 16.1714 8.992 16.0594 9.68ZM27.3909 17V5.096H30.3669V6.44H30.7989C30.9749 5.96 31.2629 5.608 31.6629 5.384C32.0789 5.16 32.5589 5.048 33.1029 5.048H34.5429V7.736H33.0549C32.2869 7.736 31.6549 7.944 31.1589 8.36C30.6629 8.76 30.4149 9.384 30.4149 10.232V17H27.3909ZM36.9066 17V5.096H39.8826V6.44H40.3146C40.4906 5.96 40.7786 5.608 41.1786 5.384C41.5946 5.16 42.0746 5.048 42.6186 5.048H44.0586V7.736H42.5706C41.8026 7.736 41.1706 7.944 40.6746 8.36C40.1786 8.76 39.9306 9.384 39.9306 10.232V17H36.9066ZM49.8369 17.336C48.9889 17.336 48.2289 17.192 47.5569 16.904C46.8849 16.6 46.3489 16.168 45.9489 15.608C45.5649 15.032 45.3729 14.336 45.3729 13.52C45.3729 12.704 45.5649 12.024 45.9489 11.48C46.3489 10.92 46.8929 10.504 47.5809 10.232C48.2849 9.944 49.0849 9.8 49.9809 9.8H53.2449V9.128C53.2449 8.568 53.0689 8.112 52.7169 7.76C52.3649 7.392 51.8049 7.208 51.0369 7.208C50.2849 7.208 49.7249 7.384 49.3569 7.736C48.9889 8.072 48.7489 8.512 48.6369 9.056L45.8529 8.12C46.0449 7.512 46.3489 6.96 46.7649 6.464C47.1969 5.952 47.7649 5.544 48.4689 5.24C49.1889 4.92 50.0609 4.76 51.0849 4.76C52.6529 4.76 53.8929 5.152 54.8049 5.936C55.7169 6.72 56.1729 7.856 56.1729 9.344V13.784C56.1729 14.264 56.3969 14.504 56.8449 14.504H57.8049V17H55.7889C55.1969 17 54.7089 16.856 54.3249 16.568C53.9409 16.28 53.7489 15.896 53.7489 15.416V15.392H53.2929C53.2289 15.584 53.0849 15.84 52.8609 16.16C52.6369 16.464 52.2849 16.736 51.8049 16.976C51.3249 17.216 50.6689 17.336 49.8369 17.336ZM50.3649 14.888C51.2129 14.888 51.9009 14.656 52.4289 14.192C52.9729 13.712 53.2449 13.08 53.2449 12.296V12.056H50.1969C49.6369 12.056 49.1969 12.176 48.8769 12.416C48.5569 12.656 48.3969 12.992 48.3969 13.424C48.3969 13.856 48.5649 14.208 48.9009 14.48C49.2369 14.752 49.7249 14.888 50.3649 14.888ZM63.8079 17V3.08H58.9119V0.199999H71.8719V3.08H66.9759V17H63.8079ZM72.4847 17V5.096H75.4607V6.44H75.8927C76.0687 5.96 76.3567 5.608 76.7567 5.384C77.1727 5.16 77.6527 5.048 78.1967 5.048H79.6367V7.736H78.1487C77.3807 7.736 76.7487 7.944 76.2527 8.36C75.7567 8.76 75.5087 9.384 75.5087 10.232V17H72.4847ZM87.0024 17.336C85.8184 17.336 84.7704 17.088 83.8584 16.592C82.9624 16.08 82.2584 15.368 81.7464 14.456C81.2504 13.528 81.0024 12.44 81.0024 11.192V10.904C81.0024 9.656 81.2504 8.576 81.7464 7.664C82.2424 6.736 82.9384 6.024 83.8344 5.528C84.7304 5.016 85.7704 4.76 86.9544 4.76C88.1224 4.76 89.1384 5.024 90.0024 5.552C90.8664 6.064 91.5384 6.784 92.0184 7.712C92.4984 8.624 92.7384 9.688 92.7384 10.904V11.936H84.0744C84.1064 12.752 84.4104 13.416 84.9864 13.928C85.5624 14.44 86.2664 14.696 87.0984 14.696C87.9464 14.696 88.5704 14.512 88.9704 14.144C89.3704 13.776 89.6744 13.368 89.8824 12.92L92.3544 14.216C92.1304 14.632 91.8024 15.088 91.3704 15.584C90.9544 16.064 90.3944 16.48 89.6904 16.832C88.9864 17.168 88.0904 17.336 87.0024 17.336ZM84.0984 9.68H89.6664C89.6024 8.992 89.3224 8.44 88.8264 8.024C88.3464 7.608 87.7144 7.4 86.9304 7.4C86.1144 7.4 85.4664 7.608 84.9864 8.024C84.5064 8.44 84.2104 8.992 84.0984 9.68ZM95.43 17V0.199999H98.454V9.488H98.886L102.822 5.096H106.758L101.262 10.856L106.95 17H103.062L98.886 12.272H98.454V17H95.43Z" fill="white"/>
<path d="M110.873 17.336C110.233 17.336 109.689 17.128 109.241 16.712C108.809 16.28 108.593 15.728 108.593 15.056C108.593 14.384 108.809 13.84 109.241 13.424C109.689 12.992 110.233 12.776 110.873 12.776C111.529 12.776 112.073 12.992 112.505 13.424C112.937 13.84 113.153 14.384 113.153 15.056C113.153 15.728 112.937 16.28 112.505 16.712C112.073 17.128 111.529 17.336 110.873 17.336Z" fill="#D65A31"/>
</svg>
